<svg width="26" height="27" viewBox="0 0 26 27" fill="none" xmlns="http://www.w3.org/2000/svg">
<g filter="url(#filter0_d_8_136)">
<path d="M21.1712 8.36792H20.5V8.33334H13V11.6667H17.7096C17.0225 13.6071 15.1762 15 13 15C10.2387 15 8 12.7613 8 10C8 7.23876 10.2387 5.00001 13 5.00001C14.2746 5.00001 15.4342 5.48084 16.3171 6.26625L18.6742 3.90917C17.1858 2.52209 15.195 1.66667 13 1.66667C8.39791 1.66667 4.66666 5.39792 4.66666 10C4.66666 14.6021 8.39791 18.3333 13 18.3333C17.6021 18.3333 21.3333 14.6021 21.3333 10C21.3333 9.44126 21.2758 8.89584 21.1712 8.36792Z" fill="#FFC107"/>
<path d="M5.6275 6.12125L8.36542 8.12917C9.10625 6.29501 10.9004 5.00001 13 5.00001C14.2746 5.00001 15.4342 5.48084 16.3171 6.26625L18.6742 3.90917C17.1858 2.52209 15.195 1.66667 13 1.66667C9.79917 1.66667 7.02334 3.47376 5.6275 6.12125Z" fill="#FF3D00"/>
<path d="M13 18.3333C15.1525 18.3333 17.1083 17.5096 18.5871 16.17L16.0079 13.9875C15.1431 14.6452 14.0864 15.0009 13 15C10.8325 15 8.99209 13.6179 8.29875 11.6892L5.58125 13.7829C6.96042 16.4817 9.76125 18.3333 13 18.3333Z" fill="#4CAF50"/>
<path d="M21.1712 8.36793H20.5V8.33334H13V11.6667H17.7096C17.3809 12.5902 16.7889 13.3972 16.0067 13.9879L16.0079 13.9871L18.5871 16.1696C18.4046 16.3354 21.3333 14.1667 21.3333 10C21.3333 9.44126 21.2758 8.89584 21.1712 8.36793Z" fill="#1976D2"/>
</g>
<defs>
<filter id="filter0_d_8_136" x="-1" y="0" width="28" height="28" filterUnits="userSpaceOnUse" color-interpolation-filters="sRGB">
<feFlood flood-opacity="0" result="BackgroundImageFix"/>
<feColorMatrix in="SourceAlpha" type="matrix" values="0 0 0 0 0 0 0 0 0 0 0 0 0 0 0 0 0 0 127 0" result="hardAlpha"/>
<feOffset dy="4"/>
<feGaussianBlur stdDeviation="2"/>
<feComposite in2="hardAlpha" operator="out"/>
<feColorMatrix type="matrix" values="0 0 0 0 0 0 0 0 0 0 0 0 0 0 0 0 0 0 0.25 0"/>
<feBlend mode="normal" in2="BackgroundImageFix" result="effect1_dropShadow_8_136"/>
<feBlend mode="normal" in="SourceGraphic" in2="effect1_dropShadow_8_136" result="shape"/>
</filter>
</defs>
</svg>
